<svg xmlns="http://www.w3.org/2000/svg" width="22.26" height="22.308" viewBox="0 0 22.26 22.308">
  <path id="Контур_52" data-name="Контур 52" d="M81.667,20.757V32.227A1.434,1.434,0,0,0,83.1,33.67h19.13a1.434,1.434,0,0,0,1.435-1.449V20.757a1.435,1.435,0,0,0-.539-1.12l-9.565-7.652a1.435,1.435,0,0,0-1.793,0l-9.565,7.652a1.435,1.435,0,0,0-.539,1.12Zm14.923,6.352L93.563,29.53a1.435,1.435,0,0,1-1.793,0l-3.027-2.421L82.8,31.862a.478.478,0,0,0,.3.852h19.13a.478.478,0,0,0,.478-.478v0a.479.479,0,0,0-.179-.369ZM82.623,30.78,87.979,26.5l-5.355-4.284ZM97.355,26.5l5.355,4.284V22.212ZM82.8,20.383l9.565-7.652a.479.479,0,0,1,.6,0l9.565,7.652a.479.479,0,0,1,0,.747l-9.565,7.652a.479.479,0,0,1-.6,0L82.8,21.13a.479.479,0,0,1,0-.747Z" transform="translate(-81.537 -11.492)" fill="#f00600" stroke="#f00600" stroke-width="0.26" fill-rule="evenodd"/>
</svg>
