<svg xmlns="http://www.w3.org/2000/svg" width="24" height="22" viewBox="0 0 24 22">
  <path id="Контур_48" data-name="Контур 48" d="M100.49,50.227a12.223,12.223,0,0,0-5.5,1.181A4.288,4.288,0,0,0,92.4,54.533V67.669c0,1.472,1.111,2.616,2.576,3.368a12.236,12.236,0,0,0,5.511,1.19,12.982,12.982,0,0,0,4.663-.813,7.611,7.611,0,0,0,3.424.813,8.046,8.046,0,0,0,0-16.085c.012-.753-.008-1.077-.008-1.609a4.455,4.455,0,0,0-2.576-3.125,12.222,12.222,0,0,0-5.5-1.181Zm0,1.625a10.92,10.92,0,0,1,4.826,1.022,2.927,2.927,0,0,1,1.688,1.7c.1.961-.906,1.745-1.688,2.145a11.9,11.9,0,0,1-9.652,0c-.808-.519-1.7-1-1.7-2.069.081-.556.611-1.219,1.7-1.776a10.92,10.92,0,0,1,4.826-1.022Zm-6.522,5.7a6.87,6.87,0,0,0,1.019.637,12.225,12.225,0,0,0,5.5,1.181,14.342,14.342,0,0,0,1.932-.134,8.1,8.1,0,0,0-.995,1.7c-.3.023-.62.033-.937.033a10.919,10.919,0,0,1-4.818-1.014c-1.179-.606-1.7-1.333-1.7-1.935Zm14.609.2a6.436,6.436,0,1,1-6.261,6.434A6.337,6.337,0,0,1,108.577,57.75ZM93.968,60.758a6.831,6.831,0,0,0,1,.628,12.269,12.269,0,0,0,5.519,1.19c.144,0,.283,0,.424-.008a8.242,8.242,0,0,0-.163,1.617c-.087,0-.173,0-.261,0a10.919,10.919,0,0,1-4.818-1.014c-1.179-.606-1.7-1.333-1.7-1.935Zm0,3.217a6.862,6.862,0,0,0,1.011.628,12.233,12.233,0,0,0,5.511,1.19c.143,0,.284,0,.424-.008a8.129,8.129,0,0,0,.481,1.583c-.295.021-.6.033-.9.033a10.919,10.919,0,0,1-4.818-1.014c-1.179-.606-1.7-1.333-1.7-1.935Zm0,3.217a6.831,6.831,0,0,0,1,.628,12.269,12.269,0,0,0,5.519,1.19,14.4,14.4,0,0,0,1.753-.109,8.022,8.022,0,0,0,1.231,1.365,12.556,12.556,0,0,1-2.984.352A10.877,10.877,0,0,1,95.68,69.6c-1.18-.606-1.712-1.325-1.712-1.927Z" transform="translate(-92.403 -50.227)" fill="#0072f0"/>
</svg>
