<svg xmlns="http://www.w3.org/2000/svg" width="28" height="22" viewBox="0 0 28 22">
  <path id="Контур_51" data-name="Контур 51" d="M18713-13105v-11a11.041,11.041,0,0,1,11.082-11h5.838a11.041,11.041,0,0,1,11.08,11,11.042,11.042,0,0,1-11.08,11Zm1.4-11v9.611h15.521a9.659,9.659,0,0,0,9.68-9.611,9.658,9.658,0,0,0-9.68-9.611h-5.838A9.66,9.66,0,0,0,18714.4-13116Zm16.1.576a1.16,1.16,0,0,1,1.168-1.153,1.154,1.154,0,0,1,1.162,1.153,1.155,1.155,0,0,1-1.162,1.16A1.161,1.161,0,0,1,18730.5-13115.424Zm-4.67,0a1.16,1.16,0,0,1,1.17-1.153,1.162,1.162,0,0,1,1.168,1.153,1.164,1.164,0,0,1-1.168,1.16A1.162,1.162,0,0,1,18725.83-13115.424Zm-4.66,0a1.156,1.156,0,0,1,1.16-1.153,1.16,1.16,0,0,1,1.168,1.153,1.161,1.161,0,0,1-1.168,1.16A1.157,1.157,0,0,1,18721.17-13115.424Z" transform="translate(-18713 13127)" fill="#7e00f0"/>
</svg>
