<svg xmlns="http://www.w3.org/2000/svg" width="22" height="21.998" viewBox="0 0 22 21.998">
  <path id="Контур_49" data-name="Контур 49" d="M17942.994-13105a11,11,0,0,1-10.994-11,11,11,0,0,1,10.994-11,11,11,0,0,1,11.006,11,11,11,0,0,1-11.006,11Zm0-1.467a1.891,1.891,0,0,0,1.2-.518,6.092,6.092,0,0,0,1.379-1.893,13.462,13.462,0,0,0,1.061-3.145,19.267,19.267,0,0,0,.387-3.246h-8.041a18.873,18.873,0,0,0,.387,3.246,13.464,13.464,0,0,0,1.053,3.145,6.159,6.159,0,0,0,1.383,1.893,1.9,1.9,0,0,0,1.193.518Zm3.168-.539c.184-.064.365-.133.543-.207a9.514,9.514,0,0,0,3.035-2.047,9.538,9.538,0,0,0,2.037-3.027,9.374,9.374,0,0,0,.725-2.98h-4.014A15.693,15.693,0,0,1,17946.162-13107.006Zm-11.953-5.281a9.6,9.6,0,0,0,2.047,3.027,9.5,9.5,0,0,0,3.031,2.047c.178.074.361.143.545.207a15.641,15.641,0,0,1-2.32-8.262h-4.021A9.689,9.689,0,0,0,17934.209-13112.287Zm18.293-4.443a9.337,9.337,0,0,0-.725-2.979,9.533,9.533,0,0,0-2.037-3.031,9.541,9.541,0,0,0-3.035-2.045c-.178-.072-.359-.143-.543-.207a15.7,15.7,0,0,1,2.326,8.262Zm-5.482,0a19.244,19.244,0,0,0-.387-3.244,13.417,13.417,0,0,0-1.061-3.146,6.092,6.092,0,0,0-1.379-1.893,1.891,1.891,0,0,0-1.2-.518,1.9,1.9,0,0,0-1.193.518,6.159,6.159,0,0,0-1.383,1.893,13.42,13.42,0,0,0-1.053,3.146,18.85,18.85,0,0,0-.387,3.244Zm-9.508,0a15.647,15.647,0,0,1,2.32-8.262c-.184.064-.367.135-.545.207a9.524,9.524,0,0,0-3.031,2.045,9.594,9.594,0,0,0-2.047,3.031,9.65,9.65,0,0,0-.719,2.979Z" transform="translate(-17932 13126.998)" fill="#f07e00"/>
</svg>
