<svg xmlns="http://www.w3.org/2000/svg" width="128.305" height="24.052" viewBox="0 0 128.305 24.052">
  <path id="link_logo" data-name="link logo" d="M17387.965-12410.983a11.79,11.79,0,0,1,.365-16.031l15.617,17.628a11.788,11.788,0,0,1-7.123,2.386A11.8,11.8,0,0,1,17387.965-12410.983Zm118.594,1.438a9.3,9.3,0,0,1-3.369-.535l-1.494-.648-7.35-4.318v3.21q0,2.292-5.285,2.292h-.533v-11.961h5.818v5.274l7.58-5.274h6.432l-7.926,5.617,10.566,6.344Zm-26.186,0v-4.7h-11.754v4.7h-.65a9.532,9.532,0,0,1-3.1-.5q-2.068-.687-2.066-1.987v-7.032a1.36,1.36,0,0,1,.42-.993q1.38-1.455,4.785-1.452h.613v4.776h11.791v-4.776h.5q5.285,0,5.285,2.521v6.956q0,1.414-2.068,2.063a10.783,10.783,0,0,1-3.217.42Zm-49.2,0v-9.439h-2.578a11.559,11.559,0,0,0-4.506.686c-2.262.891-4.67,2.428-4.67,5.109v.816q0,2.829-5.475,2.828h-.344v-1.818c0-4.021,3.086-7.393,6.7-8.658a30.172,30.172,0,0,1,9.363-1.484h7.4v11.961Zm23.469-.037v-6.766l-2.334,1.49-6.2,4.014a10.15,10.15,0,0,1-5.514,1.262h-1.187v-11.924h.461q5.358,0,5.357,2.408v4.316c.461-.3,1.178-.751,2.145-1.336a.591.591,0,0,0,.152-.115l6.205-4.014a10.231,10.231,0,0,1,5.551-1.26h1.186v11.924Zm-48.637-7.954a11.737,11.737,0,0,0-2.941-7.052,11.742,11.742,0,0,0-5.969-3.625l.281-1.788a11.786,11.786,0,0,1,7.5,3.9,11.768,11.768,0,0,1,2.938,8.6Zm-4.131-.091a9.522,9.522,0,0,0-2.117-4.019,9.573,9.573,0,0,0-3.314-2.417l.275-1.758a9.533,9.533,0,0,1,4.688,2.9,9.517,9.517,0,0,1,2.35,5.338Zm-4.236-.093-1.863-2.1.121-.761a2.642,2.642,0,0,1,1.9.892,2.633,2.633,0,0,1,.656,1.989Z" transform="translate(-17384.498 12430.553)" fill="#f07e00" stroke="rgba(0,0,0,0)" stroke-width="1"/>
</svg>
