<svg xmlns="http://www.w3.org/2000/svg" width="18.998" height="18.999" viewBox="0 0 18.998 18.999">
  <path id="Контур_54" data-name="Контур 54" d="M18088-14594a4.994,4.994,0,0,1-5-5v-9a5,5,0,0,1,5-5h9a5,5,0,0,1,5,5v9a5,5,0,0,1-5,5Zm-3.6-14v9a3.6,3.6,0,0,0,3.6,3.6h9a3.6,3.6,0,0,0,3.6-3.6v-9a3.608,3.608,0,0,0-3.6-3.6h-9A3.6,3.6,0,0,0,18084.4-14608Zm6.855,9.555a.77.77,0,0,1-.672-.387.776.776,0,0,1,0-.781.779.779,0,0,1,.672-.386h.469v-4.28h-.391a.771.771,0,0,1-.672-.391.767.767,0,0,1,0-.776.768.768,0,0,1,.672-.387h1.168a.78.78,0,0,1,.549.228.768.768,0,0,1,.227.55v5.057h.469a.779.779,0,0,1,.672.386.776.776,0,0,1,0,.781.77.77,0,0,1-.672.387Zm.555-8.628a.968.968,0,0,1-.281-.708.9.9,0,0,1,.018-.191,1,1,0,0,1,.146-.35.89.89,0,0,1,.117-.146,1,1,0,0,1,.691-.272.993.993,0,0,1,.686.272.977.977,0,0,1,.285.687,1.034,1.034,0,0,1,0,.19.87.87,0,0,1-.145.35,1.746,1.746,0,0,1-.117.15.983.983,0,0,1-.7.3h-.018A.959.959,0,0,1,18091.811-14607.072Z" transform="translate(-18083.002 14613.001)" fill="#f07e00"/>
</svg>
